<?xml version="1.0" standalone="no"?>
<!DOCTYPE svg PUBLIC "-//W3C//DTD SVG 20010904//EN"
 "http://www.w3.org/TR/2001/REC-SVG-20010904/DTD/svg10.dtd">
<svg version="1.0" xmlns="http://www.w3.org/2000/svg"
 width="80.000000pt" height="80.000000pt" viewBox="0 0 80.000000 80.000000"
 preserveAspectRatio="xMidYMid meet">

<g transform="translate(0.000000,80.000000) scale(0.100000,-0.100000)"
fill="#000000" stroke="none">
<path d="M390 730 c0 -5 5 -10 10 -10 6 0 10 5 10 10 0 6 -4 10 -10 10 -5 0
-10 -4 -10 -10z"/>
<path d="M350 680 c0 -5 5 -10 11 -10 5 0 7 5 4 10 -3 6 -8 10 -11 10 -2 0 -4
-4 -4 -10z"/>
<path d="M435 680 c-3 -5 -1 -10 4 -10 6 0 11 5 11 10 0 6 -2 10 -4 10 -3 0
-8 -4 -11 -10z"/>
<path d="M322 635 c-10 -21 -15 -23 -36 -15 -16 6 -27 6 -31 0 -3 -5 5 -12 19
-16 21 -5 25 -12 28 -58 l3 -52 -53 0 c-46 1 -54 4 -59 24 -3 12 -10 22 -15
22 -6 0 -7 -11 -4 -26 5 -19 1 -30 -16 -45 l-23 -20 32 6 c23 5 34 2 40 -10 5
-9 22 -25 37 -35 28 -17 28 -18 7 -25 -12 -3 -29 -18 -38 -31 -13 -21 -21 -24
-47 -19 l-31 6 23 -20 c17 -15 21 -26 16 -45 -3 -15 -2 -26 4 -26 5 0 12 10
15 22 5 20 13 23 59 23 l53 1 -3 -46 c-3 -31 -10 -51 -25 -63 l-22 -19 28 5
c23 4 31 0 39 -19 6 -13 15 -24 20 -24 11 0 10 7 -3 32 -9 17 -6 24 19 47 16
15 32 34 36 42 5 12 7 12 12 0 4 -8 20 -27 36 -42 25 -23 28 -30 19 -47 -13
-25 -14 -32 -3 -32 5 0 14 11 20 25 10 21 15 23 36 15 16 -6 27 -6 31 0 3 5
-5 12 -19 16 -21 5 -25 12 -28 58 l-3 52 53 0 c46 -1 54 -4 59 -23 3 -13 10
-23 15 -23 6 0 7 11 4 26 -5 19 -1 30 16 45 l23 20 -32 -6 c-25 -5 -34 -2 -42
12 -5 10 -21 25 -34 32 l-25 13 38 34 c31 28 44 34 67 29 l28 -6 -23 20 c-17
15 -21 26 -16 45 3 15 2 26 -4 26 -5 0 -12 -10 -15 -22 -5 -20 -13 -23 -59
-24 l-53 0 3 52 c3 41 8 53 23 57 10 3 19 10 19 16 0 7 -8 7 -25 1 -22 -8 -27
-6 -37 15 -6 14 -15 25 -20 25 -11 0 -10 -7 2 -30 9 -16 3 -27 -30 -61 -22
-23 -40 -36 -40 -30 0 7 -14 25 -31 40 -26 24 -29 32 -20 49 13 25 14 32 3 32
-5 0 -14 -11 -20 -25z m48 -95 c11 -21 14 -80 3 -80 -4 0 -17 10 -30 22 -16
15 -23 33 -23 60 0 35 2 38 20 28 11 -6 24 -19 30 -30z m110 3 c0 -35 -30 -83
-52 -83 -17 0 -7 68 13 94 28 36 39 33 39 -11z m-181 -78 c40 -20 47 -43 16
-51 -29 -7 -88 24 -93 49 -4 22 37 23 77 2z m281 11 c0 -34 -58 -71 -96 -62
-29 8 -22 31 15 51 24 13 81 21 81 11z m-153 -58 c24 -32 -11 -73 -44 -52 -31
19 -19 64 17 64 10 0 22 -6 27 -12z m-94 -44 c18 -19 -40 -64 -82 -64 -42 0
-33 42 14 60 24 10 59 12 68 4z m215 -14 c35 -21 41 -37 17 -46 -23 -9 -63 4
-86 27 -17 17 -19 23 -8 30 22 13 41 11 77 -11z m-168 -65 c0 -26 -8 -44 -27
-63 l-28 -27 -3 39 c-3 29 2 44 19 62 31 33 39 30 39 -11z m79 11 c17 -18 22
-33 19 -62 l-3 -39 -27 27 c-20 19 -28 37 -28 63 0 41 8 44 39 11z"/>
<path d="M155 630 c3 -5 8 -10 11 -10 2 0 4 5 4 10 0 6 -5 10 -11 10 -5 0 -7
-4 -4 -10z"/>
<path d="M590 630 c0 -5 5 -10 10 -10 6 0 10 5 10 10 0 6 -4 10 -10 10 -5 0
-10 -4 -10 -10z"/>
<path d="M625 600 c-3 -5 -1 -10 4 -10 6 0 11 5 11 10 0 6 -2 10 -4 10 -3 0
-8 -4 -11 -10z"/>
<path d="M620 559 c0 -5 5 -7 10 -4 6 3 10 8 10 11 0 2 -4 4 -10 4 -5 0 -10
-5 -10 -11z"/>
<path d="M115 440 c-3 -5 -1 -10 4 -10 6 0 11 5 11 10 0 6 -2 10 -4 10 -3 0
-8 -4 -11 -10z"/>
<path d="M670 440 c0 -5 5 -10 11 -10 5 0 7 5 4 10 -3 6 -8 10 -11 10 -2 0 -4
-4 -4 -10z"/>
<path d="M115 350 c3 -5 8 -10 11 -10 2 0 4 5 4 10 0 6 -5 10 -11 10 -5 0 -7
-4 -4 -10z"/>
<path d="M670 349 c0 -5 5 -7 10 -4 6 3 10 8 10 11 0 2 -4 4 -10 4 -5 0 -10
-5 -10 -11z"/>
<path d="M165 230 c-3 -5 -1 -10 4 -10 6 0 11 5 11 10 0 6 -2 10 -4 10 -3 0
-8 -4 -11 -10z"/>
<path d="M225 170 c-3 -5 -1 -10 4 -10 6 0 11 5 11 10 0 6 -2 10 -4 10 -3 0
-8 -4 -11 -10z"/>
<path d="M160 159 c0 -5 5 -7 10 -4 6 3 10 8 10 11 0 2 -4 4 -10 4 -5 0 -10
-5 -10 -11z"/>
<path d="M630 160 c0 -5 5 -10 11 -10 5 0 7 5 4 10 -3 6 -8 10 -11 10 -2 0 -4
-4 -4 -10z"/>
<path d="M350 109 c0 -5 5 -7 10 -4 6 3 10 8 10 11 0 2 -4 4 -10 4 -5 0 -10
-5 -10 -11z"/>
<path d="M435 110 c3 -5 8 -10 11 -10 2 0 4 5 4 10 0 6 -5 10 -11 10 -5 0 -7
-4 -4 -10z"/>
<path d="M390 60 c0 -5 5 -10 10 -10 6 0 10 5 10 10 0 6 -4 10 -10 10 -5 0
-10 -4 -10 -10z"/>
</g>
</svg>
